<svg id="Calque_1" data-name="Calque 1" xmlns="http://www.w3.org/2000/svg" viewBox="0 0 75.76933 111.21297"><defs><style>.cls-1{fill:#89613b;}.cls-2{fill:#602873;}.cls-3{fill:#3abdb7;}.cls-4{fill:#fff;}.cls-5{fill:#a1d28a;}.cls-6{fill:#22ac00;}</style></defs><title>SHALOWN</title><path class="cls-1" d="M128.73971,152.86755a74.02178,74.02178,0,0,1-12.27095.309c3.07732-8.11135,6.13326-16.23,9.2534-24.324a4.36642,4.36642,0,0,0-.00989-3.68435,8.7238,8.7238,0,0,1,4.12007-11.4096,9.00516,9.00516,0,0,1,11.74222,3.33742,8.83711,8.83711,0,0,1-2.74828,12.05117,5.52951,5.52951,0,0,0-2.15344,2.82908Q132.71748,142.42615,128.73971,152.86755Z" transform="translate(-67.11533 -86.36644)"/><path class="cls-2" d="M104.57,91.87851l19.82366,17.13076L94.781,143.277,74.95732,126.14623a2.4359,2.4359,0,0,1-.19776-.18413,22.63646,22.63646,0,0,1,29.5996-34.25256A2.43621,2.43621,0,0,1,104.57,91.87851Z" transform="translate(-67.11533 -86.36644)"/><path class="cls-2" d="M86.91151,117.26338v.27a2.43535,2.43535,0,0,0-.01-.27Z" transform="translate(-67.11533 -86.36644)"/><path class="cls-3" d="M94.75451,174.92945v-26.2l45.29,0v26.2a2.43517,2.43517,0,0,1-.01.27,22.63646,22.63646,0,0,1-45.27,0A2.43544,2.43544,0,0,1,94.75451,174.92945Z" transform="translate(-67.11533 -86.36644)"/><path class="cls-4" d="M109.28946,137.143a9.70826,9.70826,0,0,0-.23466,2.70745,8.03109,8.03109,0,0,1-.13533,1.85912,6.88892,6.88892,0,0,1-.58664,1.73281,5.807,5.807,0,0,1-1.36276,1.76883,7.04683,7.04683,0,0,1-1.36276.88447,1.39518,1.39518,0,0,0-.19852.1083c-.05415.027-.08125.06318-.07222.10829-.42414-.06318-.84833-.13539-1.27247-.20755v-.009a.20274.20274,0,0,0,.14437-.009,9.73309,9.73309,0,0,0,1.63349-.713,4.84,4.84,0,0,0,1.57935-1.31759c.07221-.09926.1354-.19857.19858-.29783a7.94191,7.94191,0,0,0,.66783-1.32663,6.925,6.925,0,0,0,.38806-1.814,17.97679,17.97679,0,0,1,.24369-2.08474c.09926-.43323.21658-.8664.34294-1.29958C109.27139,137.20614,109.28043,137.17006,109.28946,137.143Z" transform="translate(-67.11533 -86.36644)"/><path class="cls-5" d="M109.37071,136.83615c-.009,0-.009.009-.009.01806v-.01806Z" transform="translate(-67.11533 -86.36644)"/><path class="cls-5" d="M110.941,134.89578a3.63586,3.63586,0,0,1,.44221-.67686c.02705-.04511.06318-.08119.04511-.14437l-.10829.027c-.18051.08125-.37.1354-.5505.21659-.40613.18051-.79419.38812-1.18226.6047-.56856.31585-1.1281.6588-1.66059,1.02885a3.34468,3.34468,0,0,0-.2888.20755c-.41511.28881-.8122.60465-1.20027.92953a12.78315,12.78315,0,0,0-1.91326,2.03963,8.68776,8.68776,0,0,0-.83936,1.35372c-.018.04512-.04511.08125-.06312.12636a7.00828,7.00828,0,0,0-.63175,2.00349,5.99645,5.99645,0,0,0-.01807,1.96747,2.0366,2.0366,0,0,0,.6588,1.27248,1.9737,1.9737,0,0,0,.37.23465.07406.07406,0,0,0,.06318.009.20274.20274,0,0,0,.14437-.009,9.73309,9.73309,0,0,0,1.63349-.713,4.84,4.84,0,0,0,1.57935-1.31759c.07221-.09926.1354-.19857.19858-.29783a7.94191,7.94191,0,0,0,.66783-1.32663,6.925,6.925,0,0,0,.38806-1.814,17.97679,17.97679,0,0,1,.24369-2.08474c.09926-.43323.21658-.8664.34294-1.29958.009-.0271.018-.06318.02705-.09028a9.70826,9.70826,0,0,0-.23466,2.70745,8.03109,8.03109,0,0,1-.13533,1.85912,6.88892,6.88892,0,0,1-.58664,1.73281,5.807,5.807,0,0,1-1.36276,1.76883,7.04683,7.04683,0,0,1-1.36276.88447,1.39518,1.39518,0,0,0-.19852.1083c-.05415.027-.08125.06318-.07222.10829,0,.02705.009.04511.04512.08119a1.191,1.191,0,0,0,1.01078.31591,6.551,6.551,0,0,0,1.35372-.37c.09028-.02705.18954-.07216.27977-.1083a4.92,4.92,0,0,0,1.48912-1.05589,4.97069,4.97069,0,0,0,.83027-1.101,5.65038,5.65038,0,0,0,.51442-1.36276,9.2684,9.2684,0,0,0,.18051-2.95114c-.05415-.56857-.13539-1.13714-.22562-1.69668a14.22023,14.22023,0,0,1-.20755-1.51616c0-.12637,0-.26171.009-.38807A3.48764,3.48764,0,0,1,110.941,134.89578Zm-1.57935,1.95843v-.01806h.009C109.36167,136.83615,109.36167,136.84518,109.36167,136.85421Z" transform="translate(-67.11533 -86.36644)"/><path class="cls-4" d="M119.83208,133.58078a5.97486,5.97486,0,0,1-.03952.84027c-.0099.11862-.02963.24713-.03952.36575-.02969.19772-.05931.40527-.0791.603-.27675.26692-.57336.54367-.85011.8007a.72336.72336,0,0,0,.04941-.08893,8.32348,8.32348,0,0,0,.42506-1.6014,4.331,4.331,0,0,0-.04941-1.91773,1.94539,1.94539,0,0,0-.09883-.31633,7.45839,7.45839,0,0,0-.57336-1.24554,6.80775,6.80775,0,0,0-1.09724-1.33454,14.05383,14.05383,0,0,1-1.38395-1.38389c-.257-.32623-.50416-.66229-.75129-.99841a3.27127,3.27127,0,0,0-.21744-.29655,9.19143,9.19143,0,0,0,2.00666,1.95725,6.85617,6.85617,0,0,1,1.27523,1.17634,6.04631,6.04631,0,0,1,.91931,1.42347A5.14359,5.14359,0,0,1,119.83208,133.58078Z" transform="translate(-67.11533 -86.36644)"/><path class="cls-6" d="M121.1864,133.40285a6.48961,6.48961,0,0,1-.59314,1.46305,1.08617,1.08617,0,0,1-.82049.55357c-.04942.00983-.08893,0-.09883-.02969.01979-.19771.04941-.40526.0791-.603.00989-.11862.02962-.24713.03952-.36575a5.97486,5.97486,0,0,0,.03952-.84027,5.14359,5.14359,0,0,0-.5041-2.01656,6.04631,6.04631,0,0,0-.91931-1.42347,6.85617,6.85617,0,0,0-1.27523-1.17634,9.19143,9.19143,0,0,1-2.00666-1.95725,3.27127,3.27127,0,0,1,.21744.29655c.24713.33612.49426.67218.75129.99841a14.05383,14.05383,0,0,0,1.38395,1.38389,6.80775,6.80775,0,0,1,1.09724,1.33454,7.45839,7.45839,0,0,1,.57336,1.24554,1.94539,1.94539,0,0,1,.09883.31633,4.331,4.331,0,0,1,.04941,1.91773,8.32348,8.32348,0,0,1-.42506,1.6014.72336.72336,0,0,1-.04941.08893c0,.00989-.0099.00989-.01979.01979a.09857.09857,0,0,1-.04941.03952,1.71453,1.71453,0,0,1-1.641-.08893c-.01973-.0099-.02962-.01979-.04941-.02969a5.9429,5.9429,0,0,1-1.42347-1.15655,6.69244,6.69244,0,0,1-1.09724-1.62118,8.31772,8.31772,0,0,1-.55357-1.50257,9.60607,9.60607,0,0,1-.23724-1.15655,11.22222,11.22222,0,0,1-.1384-1.41358,16.96473,16.96473,0,0,1,.02968-1.7398c.01973-.37564.05931-.74139.10872-1.10714.02963-.23723.05931-.47446.09883-.70187.0692-.40526.13841-.81053.23724-1.206.04947-.18782.11867-.35585.16809-.53378a.35313.35313,0,0,0,.03952-.089c.05931.01979.0692.0692.0791.11862a3.25977,3.25977,0,0,0,.23723.70187,3.3174,3.3174,0,0,0,1.00831,1.206,8.67391,8.67391,0,0,0,.82043.50415c.1384.06921.26691.14831.40532.21751.46458.257.91932.52388,1.36416.81053a8.63969,8.63969,0,0,1,2.04624,1.83869,2.405,2.405,0,0,1,.13835.19766,5.55906,5.55906,0,0,1,.55357.96879,4.86867,4.86867,0,0,1,.33612,1.23565A4.47141,4.47141,0,0,1,121.1864,133.40285Z" transform="translate(-67.11533 -86.36644)"/><path class="cls-6" d="M119.753,134.7868c-.02969.19772-.05931.40527-.0791.603a.10115.10115,0,0,1-.01979-.09883,1.53468,1.53468,0,0,1,.03958-.20761Z" transform="translate(-67.11533 -86.36644)"/></svg>